<?xml version="1.0" encoding="utf-8"?>
<!-- Generator: Adobe Illustrator 16.0.0, SVG Export Plug-In . SVG Version: 6.00 Build 0)  -->
<!DOCTYPE svg PUBLIC "-//W3C//DTD SVG 1.1//EN" "http://www.w3.org/Graphics/SVG/1.1/DTD/svg11.dtd">
<svg version="1.1" xmlns="http://www.w3.org/2000/svg" xmlns:xlink="http://www.w3.org/1999/xlink" x="0px" y="0px" width="1000px"
	 height="800px" viewBox="0 0 1000 800" enable-background="new 0 0 1000 800" xml:space="preserve">
<g id="Layer_5">
	<g>
		<g>
			<path fill-rule="evenodd" clip-rule="evenodd" fill="#164D8F" d="M656.075,263.6c5.798-0.341,10.614,1.792,14.45,6.4
				c1.951-2.987,4.218-5.246,6.8-6.775c3.082-1.869,7.123-2.894,12.125-3.075c5.081-0.229,9.765,1.563,14.05,5.375
				c4.309,3.804,6.459,8.479,6.45,14.025c0.001,2.754-0.174,5.021-0.525,6.8c-0.153,0.803-0.411,1.652-0.774,2.55
				c4.066,10.033,9.216,21.733,15.449,35.1c2.4,5.133,4.467,9.583,6.2,13.35c0.3,0.733,0.617,1.45,0.95,2.15
				c2.033,4.533,3.483,7.917,4.35,10.15v0.05c0.167,0.466,0.334,0.9,0.5,1.3c0.067,0.2,0.134,0.4,0.2,0.6
				c1.467,4.1-0.416,7.45-5.649,10.05c-0.4,0.2-4.351,2.267-11.851,6.2l0.575-0.525l-0.6,0.525
				c-3.957,1.926-7.616,3.509-10.976,4.75c-1.967,0.733-3.616,1.367-4.95,1.9h0.051c-1.101,0.433-1.967,0.817-2.601,1.15h-0.05
				c-1.467,0.733-3.2,1.45-5.2,2.15c-1.767,0.567-5.283,1.65-10.55,3.25c-0.434,0.133-0.884,0.284-1.35,0.45
				c-6.233,1.833-10.351,2.8-12.351,2.9h-0.05c-2.634,0.067-4.5-1.05-5.6-3.35c-0.801-1.7-1.45-2.966-1.95-3.8
				c-0.367-0.7-1-1.833-1.9-3.4c-0.3-0.533-0.633-1.117-1-1.75c-0.566-1-1.033-1.684-1.399-2.05c-4.634,1.9-8.134,2.6-10.5,2.1
				c-2.034-0.333-3.733-1.483-5.101-3.45c-0.267,0.5-0.5,0.983-0.7,1.45c-0.399,0.733-0.767,1.45-1.1,2.15
				c-0.533,1-1.017,1.967-1.45,2.9c-0.716,1.433-2.741,6.1-6.075,14H772.1c0.069-0.003,0.145-0.003,0.226,0
				c6.461,0.45,10.336,2.475,11.625,6.075c1.713,3.169,0.879,7.644-2.5,13.425l0.024-0.025l-43.1,75.45
				c-0.017,0.021-0.033,0.046-0.05,0.075c-3.375,5.478-7.608,8.886-12.7,10.225c6.198,8.168,7.815,16.359,4.85,24.575v0.025
				c-3.481,9.966-10.057,15.691-19.725,17.175c-0.166,0.03-0.333,0.047-0.5,0.05h-158.9c-9.751,0.258-17.376-4.001-22.875-12.775
				l-18.55,30.275c-0.148,0.225-0.323,0.434-0.524,0.625c-3.757,3.64-7.332,5.432-10.726,5.375
				c-3.619,0.19-6.977-1.585-10.075-5.325c-0.09-0.108-0.174-0.217-0.25-0.325l-21.25-33.574l-5.35,7.05
				c-0.042,0.047-0.083,0.097-0.125,0.149c-4.743,5.523-9.751,8.349-15.025,8.476c-0.604,0.044-1.188,0.044-1.75,0h-4.9
				c-45.333-0.033-90.65-0.05-135.95-0.05H201.15c-0.054,0.001-0.112,0.001-0.175,0c-7.099-0.416-11.399-2.541-12.9-6.375
				c-1.944-3.43-1.094-8.313,2.55-14.65l0.025-0.025l71.65-121.675c-8.241-7.292-20.958-12.15-38.15-14.575l8.4-6.05
				c56.067-40.367,108.934-61.8,158.6-64.3c71.033-72.7,131.3-106.767,180.8-102.2v0.05c15.5,1.033,24.399,16.867,26.7,47.5
				c1.333,18.167,0.316,41.85-3.051,71.05c-0.6,5.1-1.267,10.4-2,15.9c-0.1,0.633-0.199,1.284-0.3,1.95
				c-0.366,2.533-0.733,5.1-1.1,7.7c-0.3,2.167-0.617,4.35-0.95,6.55c-1.134,7.4-2.934,20.217-5.4,38.45H578.9
				c3.033-18.233,5.133-31.05,6.3-38.45c0.3-2.2,0.616-4.383,0.95-6.55c0.366-2.6,0.733-5.167,1.1-7.7
				c5.167-37.333,6.967-66.817,5.4-88.45c-1.967-26.466-9.051-40.466-21.25-42c-48.2-4-107.101,29.733-176.7,101.2l-0.15,0.1
				c-8.833,9.066-17.833,18.733-27,29c-2.333,2.566-4.65,5.183-6.95,7.85c-2.1,2.367-4.184,4.767-6.25,7.2
				c-5.633,6.533-11.317,13.283-17.05,20.25l-1.2,0.15l-2.75-4.8c4.367-5.333,8.717-10.517,13.05-15.55
				c2.067-2.467,4.133-4.883,6.2-7.25c2.3-2.667,4.6-5.284,6.9-7.85c8.6-9.733,17.067-18.95,25.4-27.65
				c-45.6,3.933-93.933,23.933-145,60c13,2.933,23.184,8.767,30.55,17.5l-74.2,125.95l0.025-0.025
				c-2.195,3.806-2.979,6.681-2.35,8.625c1.05,1.548,3.517,2.431,7.4,2.65H304c45.3,0,90.617,0.017,135.95,0.05l4.35-0.05
				c0.17,0.002,0.345,0.019,0.525,0.05h0.125c0.05,0,0.1,0,0.15,0c0.078-0.004,0.161-0.004,0.25,0c0.281,0.021,0.573,0.021,0.875,0
				c0.027,0,0.052,0,0.075,0c3.546-0.269,6.963-2.294,10.25-6.075l8.2-10.8c0.441-0.57,1.008-0.954,1.7-1.15
				c0.689-0.195,1.373-0.162,2.05,0.101c0.679,0.251,1.212,0.677,1.6,1.274l23.675,37.425c1.518,1.766,3.11,2.69,4.775,2.775
				c1.858-0.147,3.867-1.214,6.025-3.2l21.3-34.8c0.426-0.692,1.026-1.159,1.8-1.4c0.78-0.248,1.547-0.206,2.3,0.125
				c0.746,0.34,1.288,0.882,1.625,1.625c4.329,9.504,10.888,14.22,19.676,14.15c0.026,0,0.052,0,0.074,0h158.7
				c6.967-1.251,11.726-5.542,14.275-12.875v0.025c2.438-7.595-0.112-15.22-7.65-22.875c-0.468-0.478-0.76-1.044-0.875-1.7
				c-0.117-0.663-0.033-1.305,0.25-1.925c0.277-0.618,0.702-1.102,1.275-1.45c0.581-0.346,1.206-0.495,1.875-0.45
				c5.675,0.298,10.184-2.243,13.524-7.625l43.101-75.45l0.024-0.024c1.927-3.297,2.652-5.789,2.176-7.476
				c-0.876-1.265-2.926-2.007-6.15-2.225H631.25c-0.01,0.017-0.018,0.033-0.025,0.05H625.7c6.477-12.086,10.31-19.286,11.5-21.6
				c0.5-1,1.033-2.066,1.6-3.2h0.05c0.367-0.733,0.75-1.5,1.15-2.3c0.4-0.867,0.833-1.75,1.3-2.65c0.134-0.233,0.233-0.433,0.3-0.6
				c-0.399-1-0.699-1.9-0.899-2.7l-0.05-0.05c-0.367-1.233-0.801-2.467-1.301-3.7c-0.199-0.467-0.383-0.917-0.55-1.35
				c-0.133-0.267-0.25-0.517-0.35-0.75c-0.066-0.133-0.134-0.25-0.2-0.35h0.05c-0.267-0.5-0.533-1-0.8-1.5
				c-1.167-0.433-3.283-1.017-6.35-1.75c-5.967-1.367-8.817-2.867-8.551-4.5c0-1.5,0.267-3.117,0.801-4.85
				c-0.9,0.633-1.767,1.233-2.601,1.8c-1.467,0.966-2.899,1.883-4.3,2.75c-1.3,0.8-2.583,1.55-3.85,2.25
				c-1.434,0.8-2.884,1.583-4.351,2.35c-1.399,0.7-2.816,1.4-4.25,2.1c-1.267,0.6-2.55,1.2-3.85,1.8c-1.334,0.6-2.684,1.2-4.05,1.8
				v-3.8c1.933-0.667,3.85-1.417,5.75-2.25c1.833-0.8,3.649-1.65,5.449-2.55c1.267-0.667,2.551-1.35,3.851-2.05h-0.05
				c1.399-0.8,2.833-1.65,4.3-2.55c1.2-0.733,2.434-1.517,3.7-2.35c0.199-0.133,0.399-0.267,0.6-0.4c1.9-1.3,3.866-2.683,5.9-4.15
				c0.466-0.9,0.983-1.8,1.55-2.7c1.399-2.4,2.8-4.233,4.2-5.5c-0.534-2.333-0.867-4.083-1-5.25l0.05,0.05
				c-0.467-1.733,1.383-4.067,5.55-7c0.524-0.375,1.166-0.692,1.925-0.95c-1.651-0.542-3.085-1.175-4.3-1.9v-0.025
				c-1.793-1.093-3.385-2.551-4.775-4.375c-1.112-1.461-1.979-3.495-2.6-6.1l-0.025-0.025c-0.437-1.917-0.47-4.142-0.1-6.675v-0.025
				c0.433-3.089,1.874-5.822,4.325-8.2c2.204-2.146,4.846-3.571,7.925-4.275c-0.278-2.019-0.319-4.227-0.125-6.625v-0.05
				c0.165-3.179,1.757-6.513,4.775-10H643c1.533-1.791,3.383-3.116,5.55-3.975C650.576,264.224,653.084,263.74,656.075,263.6z
				 M668.9,273.7c-3.078-5.014-7.304-7.381-12.676-7.1c-2.609,0.126-4.801,0.543-6.574,1.25c-1.7,0.674-3.15,1.716-4.351,3.125
				h-0.024c-2.501,2.895-3.842,5.645-4.025,8.25v0.05c-0.212,2.596-0.178,4.388,0.1,5.375c0.445,1.582,1.195,2.932,2.25,4.05
				c-1.333-0.317-2.666-0.383-4-0.2c-2.757,0.534-5.106,1.742-7.05,3.625c-1.942,1.883-3.101,4.041-3.475,6.475v0.025
				c-0.295,2.123-0.262,3.989,0.1,5.6l-0.024-0.025c0.512,2.128,1.212,3.794,2.1,5c1.144,1.509,2.451,2.717,3.925,3.625V312.8
				c1.58,1.077,3.063,1.869,4.45,2.375c1.386,0.507,2.544,0.757,3.475,0.75c0.936,0,1.202,0.192,0.801,0.575
				c-0.408,0.38-0.925,0.73-1.551,1.05l-0.074-0.05l0.05,0.05c-1.394,0.915-2.919,1.965-4.575,3.15c-2.8,1.966-4.25,3.35-4.35,4.15
				v0.05c0.1,0.867,0.316,2.05,0.649,3.55c1.066-0.6,2.134-0.883,3.2-0.85c0.033,0,0.083,0,0.15,0l5.55,0.4
				c1.033-3.6,3.5-5.6,7.399-6c0.334-0.033,0.65,0.05,0.95,0.25c0.267,0.167,0.467,0.4,0.601,0.7c2,5,4.25,11.633,6.75,19.9
				c0.233,0.8,0.466,1.617,0.699,2.45c0.934,3.133,1.9,6.5,2.9,10.1v0.05c0.1,0.433,0.217,0.883,0.35,1.35
				c0.101,0.333,0.2,0.684,0.301,1.05c0.1,0.3,0.083,0.617-0.051,0.95c-0.1,0.3-0.283,0.534-0.55,0.7l-2.649,1.65
				c-0.067,0.033-0.117,0.067-0.15,0.1c-2.7,1.4-5.134,1.8-7.3,1.2c-2.566-0.633-4-1.617-4.3-2.95v0.05
				c-0.2-0.533-0.384-0.95-0.551-1.25l-0.149-0.1c-0.134,0-0.267-0.017-0.4-0.05l-5.25-1.75c0.033,0.133,0.084,0.283,0.15,0.45
				c0.434,1,0.833,2,1.2,3c0.199,0.633,0.416,1.283,0.649,1.95c0,0.034,0,0.067,0,0.1c0.2,0.8,0.533,1.733,1,2.8v0.1l0.05,0.05
				c0,0.033,0.017,0.083,0.051,0.15c1.033,2.367,2.466,3.767,4.3,4.2c2.066,0.333,5.217-0.4,9.45-2.2
				c0.333-0.167,0.683-0.183,1.05-0.05c1.033,0.2,2.184,1.417,3.45,3.65c0.366,0.633,0.699,1.233,1,1.8
				c0.899,1.6,1.55,2.733,1.949,3.4l-0.05-0.05c0.5,0.9,1.184,2.233,2.05,4c0.567,1.133,1.5,1.683,2.801,1.65
				c1.899-0.1,5.783-1.017,11.649-2.75h-0.05c0.233-0.1,0.483-0.183,0.75-0.25c5.566-1.7,9.267-2.85,11.1-3.45h-0.05
				c1.867-0.667,3.5-1.333,4.9-2c0.666-0.333,1.6-0.733,2.8-1.2v-0.05c1.333-0.534,3-1.167,5-1.9
				c3.234-1.228,10.317-4.628,21.25-10.2c0.434-0.2,0.866-0.417,1.3-0.65c3.467-1.733,4.851-3.867,4.15-6.4
				c-0.167-0.433-0.351-0.95-0.55-1.55c-0.034-0.1-0.067-0.183-0.101-0.25c-0.866-2.2-2.3-5.533-4.3-10v-0.05
				c-0.467-1.067-0.967-2.184-1.5-3.35c-1.6-3.5-3.467-7.533-5.6-12.1c-6.467-13.8-10.317-22.367-11.551-25.7
				c-0.699-1.767-1.733-4.066-3.1-6.9l0.2-0.4c-0.073,0.125-0.148,0.25-0.226,0.375v0.025c-1.452,2.306-2.928,3.973-4.425,5
				c-1.494,1.031-3.544,1.765-6.149,2.2c2.563-1.856,4.222-3.281,4.975-4.275c0.754-0.992,1.771-2.5,3.05-4.525v0.025
				c1.219-1.991,1.985-3.766,2.3-5.325c0.316-1.621,0.475-3.688,0.476-6.2c-0.009-4.654-1.825-8.579-5.45-11.775
				c-3.642-3.249-7.616-4.791-11.925-4.625h-0.025c-4.398,0.16-7.957,1.043-10.675,2.65c-2.51,1.508-4.585,4.008-6.225,7.5
				l-1.75,3.7L668.9,273.7z M693.125,302.9c-0.474,0.705-1.099,1.471-1.875,2.3c-2,2.1-4.217,3.15-6.65,3.15
				c-0.033,0-0.083,0-0.149,0l-1.9-0.2c-0.5,0.967-1.149,1.934-1.95,2.9v0.05c-2.267,2.667-5.066,4-8.399,4
				c-1.5,0-2.767-0.133-3.8-0.4h-0.051c-0.833-0.233-1.633-0.567-2.399-1c-1.101,1.7-2.4,2.867-3.9,3.5c-1.3,0.6-2.833,0.9-4.6,0.9
				c-1.8,0-3.017-0.033-3.65-0.1c-0.666-0.067-1.434-0.25-2.3-0.55c-0.833-0.333-1.717-0.95-2.65-1.85c0.4,0,1.101,0.117,2.101,0.35
				c1.033,0.2,2.85,0.1,5.45-0.3c2.6-0.433,4.566-1.4,5.899-2.9c1.3-1.533,2.084-2.383,2.351-2.55
				c0.267-0.167,0.566-0.233,0.899-0.2c0.3,0.033,0.566,0.15,0.8,0.35c0.867,0.7,1.801,1.183,2.801,1.45
				c0.833,0.2,1.85,0.3,3.05,0.3c2.399,0,4.434-0.983,6.1-2.95c0.867-1.066,1.5-2.1,1.9-3.1c0.1-0.333,0.3-0.583,0.6-0.75
				c0.3-0.2,0.617-0.283,0.95-0.25l3,0.3c1.7-0.033,3.75-1.05,6.15-3.05c1.733-1.5,2.783-2.617,3.149-3.35
				c0.066,0.233,0.117,0.6,0.15,1.1C694.2,300.857,693.842,301.807,693.125,302.9z M648.05,338.85H648
				c-0.366-1.3-1.083-2.917-2.15-4.85v-0.05c-0.833-1.567-1.533-2.5-2.1-2.8c-0.066-0.033-0.134-0.066-0.2-0.1l-6.399-0.45
				c-1,0.066-2.017,0.55-3.051,1.45c-0.033,0-0.05,0.017-0.05,0.05c-0.033,0.033-0.066,0.066-0.1,0.1
				c-1.367,1.133-2.767,2.9-4.2,5.3c-0.6,0.933-1.116,1.867-1.55,2.8c-0.033,0.034-0.066,0.083-0.101,0.15
				c-0.433,0.8-0.8,1.583-1.1,2.35c-0.934,2.2-1.4,4.184-1.4,5.95c0.2,0.167,2.284,0.7,6.25,1.6c3.534,0.833,5.917,1.517,7.15,2.05
				c0.033,0,0.066,0.017,0.1,0.05c0.034,0,0.067,0.017,0.101,0.05c0.267,0.033,0.483,0.083,0.649,0.15c0.067,0,0.134,0.017,0.2,0.05
				c0.066,0,0.134,0.017,0.2,0.05c0.2,0.067,0.366,0.15,0.5,0.25l5.65,1.85c0.31-0.816,0.593-1.6,0.85-2.35
				c0.936-2.786,1.469-5.085,1.6-6.9c0-0.2,0-0.4,0-0.6c0-0.767-0.017-1.483-0.05-2.15
				C648.667,341.383,648.417,340.05,648.05,338.85z M648.5,332.6v-0.05c1.167,2.167,1.967,3.983,2.4,5.45v-0.05
				c0.433,1.466,0.733,3.1,0.899,4.9c0.033,0.7,0.05,1.417,0.05,2.15c0,0.233,0,0.467,0,0.7c0,0.033,0,0.066,0,0.1
				c-0.133,2.167-0.767,5.833-1.899,11v0.05c0.267,0.433,0.517,0.983,0.75,1.65h0.05c0.267,0.4,1,0.75,2.2,1.05
				c1.533,0.333,3.25,0.017,5.149-0.95l1.601-1c-0.066-0.267-0.134-0.533-0.2-0.8c-0.066-0.2-0.116-0.4-0.15-0.6
				c-1-3.6-1.949-6.95-2.85-10.05h-0.05c-0.334-1.133-0.667-2.233-1-3.3c-2.167-7.167-4.134-13.05-5.9-17.65
				c-1.899,0.5-3.149,1.733-3.75,3.7C646.667,329.567,647.566,330.8,648.5,332.6z"/>
			<path fill-rule="evenodd" clip-rule="evenodd" fill="#FEFEFE" d="M668.9,273.7l2,3.3l1.75-3.7c1.64-3.492,3.715-5.992,6.225-7.5
				c2.718-1.606,6.276-2.49,10.675-2.65h0.025c4.309-0.166,8.283,1.376,11.925,4.625c3.625,3.196,5.441,7.121,5.45,11.775
				c-0.001,2.513-0.159,4.579-0.476,6.2c-0.314,1.559-1.081,3.334-2.3,5.325v-0.025c-1.279,2.025-2.296,3.534-3.05,4.525
				c-0.753,0.994-2.411,2.419-4.975,4.275c2.605-0.436,4.655-1.169,6.149-2.2c1.497-1.027,2.973-2.694,4.425-5v-0.025
				c0.077-0.125,0.152-0.25,0.226-0.375l-0.2,0.4c1.366,2.833,2.4,5.133,3.1,6.9c1.233,3.333,5.084,11.9,11.551,25.7
				c2.133,4.567,4,8.6,5.6,12.1c0.533,1.167,1.033,2.283,1.5,3.35v0.05c2,4.467,3.434,7.8,4.3,10c0.033,0.067,0.066,0.15,0.101,0.25
				c0.199,0.6,0.383,1.117,0.55,1.55c0.7,2.534-0.684,4.667-4.15,6.4c-0.434,0.233-0.866,0.45-1.3,0.65
				c-10.933,5.572-18.016,8.972-21.25,10.2c-2,0.733-3.667,1.367-5,1.9v0.05c-1.2,0.467-2.134,0.867-2.8,1.2
				c-1.4,0.667-3.033,1.333-4.9,2h0.05c-1.833,0.6-5.533,1.75-11.1,3.45c-0.267,0.067-0.517,0.15-0.75,0.25h0.05
				c-5.866,1.733-9.75,2.65-11.649,2.75c-1.301,0.033-2.233-0.517-2.801-1.65c-0.866-1.767-1.55-3.1-2.05-4l0.05,0.05
				c-0.399-0.667-1.05-1.8-1.949-3.4c-0.301-0.566-0.634-1.167-1-1.8c-1.267-2.233-2.417-3.45-3.45-3.65
				c-0.367-0.133-0.717-0.117-1.05,0.05c-4.233,1.8-7.384,2.533-9.45,2.2c-1.834-0.434-3.267-1.833-4.3-4.2
				c-0.034-0.067-0.051-0.117-0.051-0.15l-0.05-0.05v-0.1c-0.467-1.067-0.8-2-1-2.8c0-0.033,0-0.066,0-0.1
				c-0.233-0.667-0.45-1.316-0.649-1.95c-0.367-1-0.767-2-1.2-3c-0.066-0.167-0.117-0.317-0.15-0.45l5.25,1.75
				c0.134,0.033,0.267,0.05,0.4,0.05l0.149,0.1c0.167,0.3,0.351,0.717,0.551,1.25v-0.05c0.3,1.333,1.733,2.317,4.3,2.95
				c2.166,0.6,4.6,0.2,7.3-1.2c0.033-0.033,0.083-0.067,0.15-0.1l2.649-1.65c0.267-0.167,0.45-0.4,0.55-0.7
				c0.134-0.333,0.15-0.65,0.051-0.95c-0.101-0.367-0.2-0.717-0.301-1.05c-0.133-0.466-0.25-0.917-0.35-1.35v-0.05
				c-1-3.6-1.967-6.967-2.9-10.1c-0.233-0.833-0.466-1.65-0.699-2.45c-2.5-8.267-4.75-14.9-6.75-19.9
				c-0.134-0.3-0.334-0.534-0.601-0.7c-0.3-0.2-0.616-0.283-0.95-0.25c-3.899,0.4-6.366,2.4-7.399,6l-5.55-0.4
				c-0.067,0-0.117,0-0.15,0c-1.066-0.033-2.134,0.25-3.2,0.85c-0.333-1.5-0.55-2.684-0.649-3.55v-0.05
				c0.1-0.8,1.55-2.184,4.35-4.15c1.656-1.186,3.182-2.235,4.575-3.15l-0.05-0.05l0.074,0.05c0.626-0.319,1.143-0.669,1.551-1.05
				c0.401-0.383,0.135-0.575-0.801-0.575c-0.931,0.007-2.089-0.243-3.475-0.75c-1.387-0.506-2.87-1.298-4.45-2.375v0.025
				c-1.474-0.908-2.781-2.116-3.925-3.625c-0.888-1.206-1.588-2.872-2.1-5l0.024,0.025c-0.361-1.611-0.395-3.478-0.1-5.6V298.6
				c0.374-2.434,1.532-4.592,3.475-6.475c1.943-1.883,4.293-3.091,7.05-3.625c1.334-0.183,2.667-0.117,4,0.2
				c-1.055-1.119-1.805-2.469-2.25-4.05c-0.277-0.987-0.312-2.779-0.1-5.375v-0.05c0.184-2.605,1.524-5.355,4.025-8.25h0.024
				c1.2-1.409,2.65-2.451,4.351-3.125c1.773-0.707,3.965-1.124,6.574-1.25C661.597,266.319,665.822,268.686,668.9,273.7z
				 M696.475,304.8c-1.044,1.4-1.886,2.483-2.524,3.25c-1.434,1.7-3,2.667-4.7,2.9c-2.533,0.367-4.583,0.883-6.15,1.55
				c-1.566,0.7-2.916,1.683-4.05,2.95c-1.166,1.3-2.883,2.133-5.149,2.5c-0.467,0.1-2.75,0.267-6.851,0.5
				c-0.767,0.066-2.566,0.583-5.399,1.55c-2.733,0.9-4.801,1.35-6.2,1.35c-0.319,0-0.661-0.025-1.025-0.075
				c3.726,10.708,6.634,19.449,8.726,26.225c0.399,1.333,1.216,3.883,2.449,7.65c1.101,3.3,1.934,5.967,2.5,8
				c0.467,1.667,1.301,4.267,2.5,7.8c0.801,2.433,1.267,3.75,1.4,3.95c0.566,0.733,1.783,1.1,3.65,1.1c0.899,0,1.899-0.267,3-0.8
				c0.479-0.202,1.078-0.502,1.8-0.9c0.239-0.118,0.964-0.409,2.175-0.875c1.212-0.471,2.562-0.963,4.05-1.475
				c1.487-0.507,3.554-1.124,6.2-1.85c2.648-0.731,4.74-1.431,6.275-2.1c0.3-0.133,2.083-1,5.35-2.6
				c2.233-1.066,4.083-1.883,5.55-2.45c0.5-0.2,2.267-0.767,5.3-1.7c7.216-3.193,11.499-5.534,12.851-7.025
				c1.36-1.488,0.544-5.289-2.45-11.4c-2.997-6.113-5.055-10.255-6.175-12.425c-1.118-2.174-3.844-7.999-8.175-17.475
				c-4.332-9.469-7.732-12.719-10.2-9.75C699.441,305.29,697.866,305.832,696.475,304.8z M693.125,302.9
				c0.717-1.093,1.075-2.043,1.075-2.85c-0.033-0.5-0.084-0.867-0.15-1.1c-0.366,0.733-1.416,1.85-3.149,3.35
				c-2.4,2-4.45,3.017-6.15,3.05l-3-0.3c-0.333-0.033-0.65,0.05-0.95,0.25c-0.3,0.167-0.5,0.417-0.6,0.75
				c-0.4,1-1.033,2.034-1.9,3.1c-1.666,1.967-3.7,2.95-6.1,2.95c-1.2,0-2.217-0.1-3.05-0.3c-1-0.267-1.934-0.75-2.801-1.45
				c-0.233-0.2-0.5-0.317-0.8-0.35c-0.333-0.033-0.633,0.033-0.899,0.2c-0.267,0.167-1.051,1.017-2.351,2.55
				c-1.333,1.5-3.3,2.467-5.899,2.9c-2.601,0.4-4.417,0.5-5.45,0.3c-1-0.233-1.7-0.35-2.101-0.35c0.934,0.9,1.817,1.517,2.65,1.85
				c0.866,0.3,1.634,0.483,2.3,0.55c0.634,0.067,1.851,0.1,3.65,0.1c1.767,0,3.3-0.3,4.6-0.9c1.5-0.633,2.8-1.8,3.9-3.5
				c0.767,0.433,1.566,0.767,2.399,1h0.051c1.033,0.267,2.3,0.4,3.8,0.4c3.333,0,6.133-1.333,8.399-4v-0.05
				c0.801-0.966,1.45-1.933,1.95-2.9l1.9,0.2c0.066,0,0.116,0,0.149,0c2.434,0,4.65-1.05,6.65-3.15
				C692.026,304.371,692.651,303.604,693.125,302.9z M684.8,316.15c0.9-0.566,1.7-1.233,2.4-2l18.5,44.75
				c0.1,0.233,0.133,0.5,0.1,0.8c-0.033,0.267-0.133,0.5-0.3,0.7c-0.2,0.2-0.417,0.35-0.65,0.45l-9.75,3.6
				c-0.399,0.133-0.8,0.117-1.199-0.05c-0.367-0.167-0.617-0.45-0.75-0.85l-15.426-44.175
				C679.246,318.784,681.604,317.709,684.8,316.15z M694.375,312.2c0.791-0.241,1.749-0.541,2.875-0.9l4.05-1.7
				c0.967-0.5,1.767-1.15,2.4-1.95l20.85,43.95c0.167,0.367,0.184,0.75,0.05,1.15c-0.133,0.4-0.383,0.683-0.75,0.85l-8.75,4.15
				c-0.267,0.133-0.533,0.183-0.8,0.15s-0.517-0.133-0.75-0.3c-0.2-0.167-0.35-0.367-0.45-0.6L694.375,312.2z M659.55,322.75
				c5.867-0.9,9.316-1.417,10.351-1.55l16.149,44.75c0.101,0.267,0.134,0.533,0.101,0.8c-0.067,0.267-0.2,0.5-0.4,0.7
				c-0.2,0.2-0.417,0.35-0.65,0.45l-8.35,2.5c-0.4,0.1-0.783,0.067-1.15-0.1c-0.366-0.2-0.6-0.483-0.699-0.85L659.55,322.75z
				 M389.95,395.2c6.333-14.467,11.783-26.35,16.35-35.65c8.267-16.9,16.883-31.333,25.85-43.3c0.1-0.133,0.184-0.25,0.25-0.35
				l0.05,0.05l15.9-17.45c0.8-0.533,1.55-1.183,2.25-1.95c0.7-0.767,1.283-1.583,1.75-2.45l17.55-12.9
				c50-36.867,80.484-53.15,91.45-48.85c10.967,4.267,17.517,18.867,19.65,43.8c1.267,14.767-0.333,36.967-4.8,66.6
				c-0.367,2.5-0.767,5.067-1.2,7.7c-0.366,2.167-0.75,4.367-1.15,6.6c-1.366,7.2-4.066,20-8.1,38.4L389.95,395.2z M484.1,304.6
				h-0.05l-4.3,4.45c1.456-0.955,2.906-2.005,4.35-3.15c0.233-0.188,0.467-0.379,0.7-0.575V305.3
				C484.633,304.967,484.4,304.733,484.1,304.6z"/>
			<linearGradient id="SVGID_1_" gradientUnits="userSpaceOnUse" x1="695.1846" y1="347.8438" x2="684.3513" y2="316.9466">
				<stop  offset="0" style="stop-color:#BE2239"/>
				<stop  offset="1" style="stop-color:#FFFFFF"/>
			</linearGradient>
			<path fill-rule="evenodd" clip-rule="evenodd" fill="url(#SVGID_1_)" d="M696.475,304.8c1.392,1.032,2.967,0.49,4.726-1.625
				c2.468-2.969,5.868,0.281,10.2,9.75c4.331,9.476,7.057,15.301,8.175,17.475c1.12,2.17,3.178,6.312,6.175,12.425
				c2.994,6.111,3.811,9.912,2.45,11.4c-1.352,1.491-5.635,3.832-12.851,7.025c-3.033,0.933-4.8,1.5-5.3,1.7
				c-1.467,0.566-3.316,1.383-5.55,2.45c-3.267,1.6-5.05,2.467-5.35,2.6c-1.535,0.669-3.627,1.369-6.275,2.1
				c-2.646,0.727-4.713,1.343-6.2,1.85c-1.488,0.512-2.838,1.003-4.05,1.475c-1.211,0.466-1.936,0.757-2.175,0.875
				c-0.722,0.398-1.321,0.699-1.8,0.9c-1.101,0.533-2.101,0.8-3,0.8c-1.867,0-3.084-0.367-3.65-1.1c-0.134-0.2-0.6-1.517-1.4-3.95
				c-1.199-3.534-2.033-6.133-2.5-7.8c-0.566-2.033-1.399-4.7-2.5-8c-1.233-3.767-2.05-6.316-2.449-7.65
				c-2.092-6.776-5-15.518-8.726-26.225c0.364,0.05,0.706,0.075,1.025,0.075c1.399,0,3.467-0.45,6.2-1.35
				c2.833-0.967,4.633-1.483,5.399-1.55c4.101-0.233,6.384-0.4,6.851-0.5c2.267-0.367,3.983-1.2,5.149-2.5
				c1.134-1.267,2.483-2.25,4.05-2.95c1.567-0.667,3.617-1.183,6.15-1.55c1.7-0.233,3.267-1.2,4.7-2.9
				C694.589,307.283,695.431,306.2,696.475,304.8z M694.375,312.2L713.1,357c0.101,0.233,0.25,0.433,0.45,0.6
				c0.233,0.167,0.483,0.267,0.75,0.3s0.533-0.017,0.8-0.15l8.75-4.15c0.367-0.167,0.617-0.45,0.75-0.85
				c0.134-0.4,0.117-0.783-0.05-1.15l-20.85-43.95c-0.634,0.8-1.434,1.45-2.4,1.95l-4.05,1.7
				C696.124,311.659,695.166,311.959,694.375,312.2z M684.8,316.15c-3.195,1.56-5.554,2.634-7.075,3.225l15.426,44.175
				c0.133,0.4,0.383,0.684,0.75,0.85c0.399,0.167,0.8,0.184,1.199,0.05l9.75-3.6c0.233-0.1,0.45-0.25,0.65-0.45
				c0.167-0.2,0.267-0.433,0.3-0.7c0.033-0.3,0-0.567-0.1-0.8l-18.5-44.75C686.5,314.917,685.7,315.583,684.8,316.15z
				 M659.55,322.75l15.351,46.7c0.1,0.367,0.333,0.65,0.699,0.85c0.367,0.167,0.75,0.2,1.15,0.1l8.35-2.5
				c0.233-0.1,0.45-0.25,0.65-0.45c0.2-0.2,0.333-0.434,0.4-0.7c0.033-0.267,0-0.533-0.101-0.8L669.9,321.2
				C668.866,321.333,665.417,321.85,659.55,322.75z"/>
			<path fill-rule="evenodd" clip-rule="evenodd" fill="#BE2239" d="M565.75,395.45c4.033-18.4,6.733-31.2,8.1-38.4
				c0.4-2.233,0.784-4.433,1.15-6.6c0.434-2.633,0.833-5.2,1.2-7.7c4.467-29.633,6.066-51.833,4.8-66.6
				c-2.134-24.933-8.684-39.533-19.65-43.8c-10.966-4.3-41.449,11.983-91.45,48.85l-17.55,12.9c-0.467,0.867-1.05,1.683-1.75,2.45
				c-0.7,0.767-1.45,1.417-2.25,1.95l-15.9,17.45l-0.05-0.05c-0.066,0.1-0.15,0.217-0.25,0.35c-8.967,11.967-17.583,26.4-25.85,43.3
				c-4.566,9.3-10.017,21.184-16.35,35.65H336.1c12.9-18.367,22.15-30.883,27.75-37.55c2-2.433,4.017-4.833,6.05-7.2
				c2.233-2.667,4.483-5.284,6.75-7.85c8-9.233,15.883-17.95,23.65-26.15l0.15-0.1c11.4-12.1,22.483-23.083,33.25-32.95
				c3.754-3.678,6.054-5.744,6.9-6.2c48.733-43.1,91.15-63.1,127.25-60c11.534,1.5,18.233,15.216,20.101,41.15
				c1.467,20.733-0.134,48.867-4.8,84.4c-0.334,2.533-0.684,5.1-1.051,7.7c-0.3,2.167-0.616,4.35-0.949,6.55
				c-1.067,7.333-3.384,20.15-6.95,38.45H565.75z M329.65,368l-17.45-24.75c-2.633-2.2-7.034-1.233-13.2,2.9l-25.65,42.05
				c-6.233-7.1-14.267-11.867-24.1-14.3c41.738-29.861,84.538-48.161,128.4-54.9C360.917,334.367,344.917,350.7,329.65,368z
				 M643.15,333.2c0.501,0.409,0.993,1.025,1.475,1.85c0.478,0.825,1.086,2.116,1.825,3.875c0.044,0.104,0.086,0.204,0.125,0.3
				l0.175,0.625c0.333,1.1,0.5,2.417,0.5,3.95c0,1.567-0.217,3.133-0.65,4.7c-0.189,0.787-0.515,1.937-0.975,3.45
				c-1.986-0.661-4.395-1.395-7.225-2.2c-4.801-1.367-8.117-2.367-9.95-3v-0.35c0.565-2.033,1.299-3.816,2.2-5.35
				c0.901-1.533,1.702-2.9,2.399-4.1c0.698-1.2,1.548-2.167,2.55-2.9c1.001-0.733,1.651-1.15,1.95-1.25c0.367-0.133,1.2-0.2,2.5-0.2
				C641.616,332.597,642.649,332.797,643.15,333.2z M590.6,395.45l5.101-33.65l24-11.15c0.233,1.3,1.35,2.6,3.35,3.9L635,357
				l2.95,8.1L621.6,395.45H590.6z"/>
		</g>
		<g>
			<path fill-rule="evenodd" clip-rule="evenodd" fill="#164D8F" d="M485.35,312.25c-3.367,3.367-6.35,5.75-8.95,7.15
				c-0.066,0.033-0.217,0.167-0.45,0.4l13.3-14.85c0.133-0.1,0.25-0.2,0.35-0.3c0.267,0.133,0.467,0.35,0.6,0.65
				c0.6,1.3,1.433,2.9,2.5,4.8c0.4,0.733,0.833,1.517,1.3,2.35c0.233,0.4,0.467,0.816,0.7,1.25c0.833-1.133,1.966-2.617,3.4-4.45
				c2.1-2.767,3.733-5,4.9-6.7c1.434-2.066,3.767-5.367,7-9.9c0.533-0.733,1.083-1.5,1.65-2.3c0.166-0.267,0.333-0.517,0.5-0.75
				c0.733-1.067,1.383-1.983,1.949-2.75c-0.033,0.1-0.017,0.183,0.051,0.25c0.199,0.233,0.383,0.517,0.55,0.85
				c0.733,1.633,2.017,4.433,3.85,8.4c0.566,1.267,1.084,2.467,1.55,3.6c0.4,0.966,0.75,1.9,1.051,2.8
				c3.666-6.433,7.3-13.1,10.899-20c1.3-2.5,2.334-4.45,3.101-5.85c0.333-0.633,0.616-1.167,0.85-1.6c0.033,0.034,0.066,0.1,0.1,0.2
				c1.334,2.967,3.301,8.033,5.9,15.2c1.434,3.9,2.634,7.417,3.6,10.55c0.101,0.333,0.2,0.65,0.301,0.95
				c1.533-3.067,3.083-6.3,4.649-9.7c1.8-3.967,3.601-7.583,5.4-10.85c0.566-1.1,1.149-2.167,1.75-3.2
				c0.133-0.267,0.267-0.517,0.399-0.75c0,0.066,0.017,0.15,0.051,0.25c0.6,2.7,1.833,8.017,3.699,15.95v0.05
				c0.767,4.367,1.417,8.233,1.95,11.6c0.167-0.333,0.334-0.667,0.5-1c1.934-4.066,3.117-6.7,3.55-7.9
				c0.467-1.267,1.267-3.017,2.4-5.25v2.85c0,0.367,0,0.733,0,1.1c-0.434,3.367-2.366,8.4-5.8,15.1c-0.066,0.1-0.15,0.2-0.25,0.3
				l-0.7,1.35c-0.5-2.567-1.45-6.8-2.85-12.7c-1.767-7.333-2.884-12.417-3.351-15.25c-0.033-0.066-0.05-0.133-0.05-0.2
				c-0.4,1-0.816,2.033-1.25,3.1c-0.9,2.1-1.9,4.35-3,6.75v0.05c-3.533,6.433-6,10.867-7.4,13.3c-0.166,0.333-0.333,0.633-0.5,0.9
				c-0.1-0.267-0.199-0.566-0.3-0.9c-0.2-0.633-0.45-1.35-0.75-2.15c-1.033-3.2-2.566-7.6-4.6-13.2
				c-1.667-4.566-2.917-8.033-3.75-10.4c-0.334,0.633-0.65,1.25-0.95,1.85c-5.667,11.067-10.017,18.883-13.05,23.45
				c-0.3,0.433-0.584,0.85-0.851,1.25c-0.267-0.667-0.616-1.483-1.05-2.45c-0.399-0.867-0.85-1.833-1.35-2.9
				c-0.334-0.7-0.684-1.45-1.05-2.25c-0.434-0.833-0.884-1.733-1.351-2.7v0.05c-1.133-2.5-2.033-4.233-2.7-5.2
				c-0.633,0.933-1.233,1.817-1.8,2.65c-2.967,4.333-5.083,7.4-6.35,9.2c-1.167,1.7-3.15,4.167-5.95,7.4
				c-2.067,2.367-3.917,4.267-5.55,5.7c-0.133-0.1-0.233-0.217-0.3-0.35c-0.533-0.9-1.033-1.75-1.5-2.55
				c-0.4-0.733-0.783-1.417-1.15-2.05c-0.8-1.433-1.483-2.717-2.05-3.85c-0.4,0.467-0.8,0.917-1.2,1.35
				C486.767,310.767,486.05,311.517,485.35,312.25z"/>
			<g>
				<path fill-rule="evenodd" clip-rule="evenodd" fill="#164D8F" d="M485.725,307.8c-0.028,0.017-0.053,0.034-0.075,0.05
					c-1.491,1.178-2.999,2.27-4.525,3.275c-7.741,5.131-15.616,7.79-23.625,7.975c5.689,1.874,11.822,2.807,18.4,2.8
					c8.526-0.012,17.651-1.829,27.375-5.45c6.448-2.415,11.09-3.94,13.925-4.575c0.04-0.01,0.082-0.019,0.125-0.025
					c0.04-0.01,0.082-0.019,0.125-0.025c8.952-1.77,14.369-2.645,16.25-2.625c10.885,0.004,19.177,2.521,24.875,7.55l0.024,0.025
					c2.77,2.323,5.236,5.522,7.4,9.6c0.694-3.448,1.194-6.022,1.5-7.725l-0.025,0.025c1.604-9.359,2.486-17.142,2.65-23.35
					c0.009-0.363,0.018-0.722,0.025-1.075v-2.85c-0.023-4.823-0.106-8.015-0.25-9.575l0.024,0.05
					c-0.355-3.226-1.197-5.884-2.524-7.975l0.024,0.025c-3.759-5.69-8.8-8.548-15.125-8.575c-4.609,0.007-9.252,0.891-13.925,2.65
					c-3.738,1.385-7.914,3.476-12.525,6.275v0.025c-7.952,4.812-14.727,9.72-20.324,14.725l0.125-0.15
					c-6.347,6.594-11.73,11.844-16.15,15.75c-0.114,0.101-0.23,0.201-0.35,0.3c-0.96,0.849-1.877,1.632-2.75,2.35
					c-0.053,0.035-0.103,0.068-0.15,0.1C486.075,307.504,485.9,307.646,485.725,307.8z M478.375,306.975
					c1.408-0.929,2.799-1.937,4.175-3.025l-0.075,0.05c0.292-0.246,0.583-0.471,0.875-0.675c4.79-3.959,11.023-9.926,18.7-17.9
					c0.043-0.051,0.085-0.101,0.125-0.15c5.803-5.195,12.827-10.287,21.075-15.275v0.025c4.922-3.001,9.381-5.243,13.375-6.725
					c5.26-1.974,10.484-2.957,15.675-2.95c8.075-0.027,14.5,3.582,19.275,10.825l0.024,0.025c1.739,2.642,2.831,6.017,3.275,10.125
					l0.025,0.05c0.17,1.833,0.253,5.841,0.25,12.025c0.009,6.71-0.899,15.418-2.726,26.125l-0.024,0.025
					c-0.498,2.808-1.515,7.991-3.051,15.55c-0.112,0.547-0.379,1.005-0.8,1.375c-0.416,0.372-0.899,0.58-1.45,0.625
					c-0.558,0.04-1.074-0.093-1.55-0.4c-0.474-0.308-0.807-0.725-1-1.25c-2.487-6.773-5.563-11.74-9.225-14.9l-0.025-0.025
					c-4.968-4.221-12.168-6.329-21.6-6.325c-1.778,0.02-6.92,0.87-15.425,2.55c-0.077,0.016-0.152,0.024-0.226,0.025
					c-2.722,0.67-7.063,2.128-13.024,4.375c-10.343,3.846-20.052,5.763-29.125,5.75c-8.678-0.009-16.645-1.526-23.9-4.55
					c-3.426-1.42-6.459-3.162-9.1-5.225c-0.454-0.363-0.745-0.83-0.875-1.4c-0.134-0.57-0.076-1.12,0.175-1.65
					c0.247-0.527,0.63-0.918,1.15-1.175c0.527-0.259,1.077-0.326,1.65-0.2c0.298,0.067,0.606,0.15,0.925,0.25
					c0.037,0.008,0.07,0.016,0.1,0.025c0.034,0.007,0.067,0.015,0.1,0.025c3.555,0.731,7.03,1.098,10.425,1.1
					C463.947,314.083,471.222,311.708,478.375,306.975z"/>
			</g>
		</g>
		<g>
			<g>
				<path fill-rule="evenodd" clip-rule="evenodd" fill="#164D8F" d="M447.158,279.125c-1.781,0.453-3.352,1.425-4.712,2.915h0.049
					c-0.875,0.939-1.555,1.991-2.04,3.157v0.097c-0.421,0.81-0.713,1.716-0.875,2.72c1.49,0.486,2.963,0.891,4.42,1.214
					c3.433,0.745,6.768,0.923,10.006,0.534c1.943-0.291,3.87-0.809,5.781-1.554c-0.356-2.333-1.344-4.372-2.963-6.121v-0.048
					c-1.976-2.17-4.372-3.255-7.189-3.255C448.761,278.785,447.935,278.898,447.158,279.125z M439.92,279.756
					c1.813-2.008,3.935-3.319,6.364-3.935h-0.049c1.101-0.292,2.235-0.438,3.4-0.438c3.789,0,7.011,1.458,9.667,4.372
					c2.429,2.623,3.757,5.764,3.983,9.424v0.146c0,0.033,0,0.081,0,0.146c0,0.227,0,0.47,0,0.729c0,2.72-0.567,5.149-1.7,7.287
					c-0.615,1.101-1.376,2.153-2.283,3.157c-0.906,0.972-1.846,1.797-2.817,2.477l-0.049,0.049c-2.007,1.263-4.274,1.895-6.8,1.895
					c-3.789,0-7.027-1.474-9.715-4.42c-2.623-2.85-3.935-6.331-3.935-10.444c0-0.389,0.016-0.777,0.048-1.166v-0.146
					c0.129-1.846,0.551-3.53,1.263-5.052C437.912,282.379,438.787,281.019,439.92,279.756z M443.271,292.629
					c-1.295-0.324-2.558-0.68-3.789-1.069c0.227,2.624,1.214,4.89,2.963,6.801c2.008,2.202,4.404,3.303,7.189,3.303
					c1.846,0,3.498-0.453,4.955-1.36c0.81-0.55,1.555-1.198,2.235-1.943c0.68-0.777,1.263-1.603,1.749-2.477
					c0.647-1.23,1.069-2.591,1.263-4.081c-1.749,0.583-3.514,1.02-5.294,1.312h-0.049c-0.097,0-0.162,0-0.194,0
					c-0.098,1.392-0.615,2.59-1.555,3.595c-1.069,1.133-2.364,1.7-3.886,1.7c-1.522,0-2.817-0.567-3.886-1.7
					c-1.036-1.134-1.554-2.494-1.554-4.081C443.353,292.629,443.304,292.629,443.271,292.629z"/>
				<path fill-rule="evenodd" clip-rule="evenodd" fill="#BE2239" d="M447.158,279.125c0.777-0.227,1.603-0.34,2.478-0.34
					c2.817,0,5.214,1.085,7.189,3.255v0.048c1.619,1.749,2.607,3.789,2.963,6.121c-1.911,0.745-3.837,1.263-5.781,1.554
					c-3.238,0.389-6.574,0.211-10.006-0.534c-1.458-0.324-2.931-0.729-4.42-1.214c0.162-1.004,0.453-1.911,0.875-2.72v-0.097
					c0.485-1.166,1.166-2.218,2.04-3.157h-0.049C443.806,280.55,445.376,279.578,447.158,279.125z"/>
				<path fill-rule="evenodd" clip-rule="evenodd" fill="#FFFFFF" d="M443.271,292.629c0.033,0,0.082,0,0.146,0
					c0,1.587,0.518,2.947,1.554,4.081c1.069,1.133,2.364,1.7,3.886,1.7c1.522,0,2.817-0.567,3.886-1.7
					c0.939-1.004,1.457-2.203,1.555-3.595c0.032,0,0.097,0,0.194,0h0.049c1.781-0.292,3.546-0.729,5.294-1.312
					c-0.194,1.489-0.615,2.85-1.263,4.081c-0.486,0.874-1.069,1.7-1.749,2.477c-0.68,0.745-1.425,1.393-2.235,1.943
					c-1.457,0.907-3.108,1.36-4.955,1.36c-2.785,0-5.181-1.101-7.189-3.303c-1.749-1.911-2.736-4.177-2.963-6.801
					C440.713,291.949,441.976,292.305,443.271,292.629z"/>
			</g>
		</g>
	</g>
</g>
<g id="Layer_3">
	<g>
		<path fill-rule="evenodd" clip-rule="evenodd" fill="#BE2239" d="M708.85,500.7c-1.733-1-3.616-1.5-5.649-1.5
			c-3.134,0-5.8,1.116-8,3.35c-2.233,2.2-3.351,4.867-3.351,8c0,3.101,1.117,5.767,3.351,8c2.2,2.233,4.866,3.351,8,3.351
			c3.133,0,5.8-1.117,8-3.351c1.7-1.666,2.75-3.649,3.149-5.95H703.2c-0.566,0-1.05-0.199-1.45-0.6s-0.6-0.884-0.6-1.45
			s0.199-1.05,0.6-1.45c0.4-0.433,0.884-0.649,1.45-0.649H716.6c0.567,0,1.051,0.217,1.45,0.649c0.434,0.4,0.65,0.884,0.65,1.45
			c0,4.267-1.517,7.9-4.55,10.9c-3.034,3.033-6.684,4.55-10.95,4.55s-7.9-1.517-10.9-4.55c-3.033-3-4.55-6.634-4.55-10.9
			s1.517-7.916,4.55-10.95c3-3.033,6.634-4.55,10.9-4.55c2.733,0,5.3,0.684,7.7,2.05c2.366,1.367,4.25,3.233,5.649,5.601
			c0.3,0.5,0.367,1.033,0.2,1.6c-0.134,0.533-0.45,0.95-0.95,1.25s-1.017,0.367-1.55,0.2c-0.533-0.134-0.95-0.45-1.25-0.95
			C711.967,503.066,710.583,501.7,708.85,500.7z M681,495.65c0.366-0.4,0.85-0.601,1.45-0.601c0.566,0,1.05,0.2,1.45,0.601
			c0.399,0.433,0.6,0.916,0.6,1.449v23.851c0,1.5-0.634,2.75-1.9,3.75c-1.1,0.866-2.399,1.3-3.899,1.3c-1.367,0-2.55-0.35-3.55-1.05
			h0.05c-0.934-0.7-1.667-1.667-2.2-2.9c-0.866-2.166-2.25-5.783-4.15-10.85c-1.767-4.7-3.183-8.316-4.25-10.851
			c-0.133-0.333-0.366-0.616-0.699-0.85c-0.301-0.2-0.65-0.3-1.051-0.3c-0.5,0-0.916,0.116-1.25,0.35l-0.05,0.05
			c-0.267,0.233-0.399,0.567-0.399,1v23.351c0,0.566-0.2,1.05-0.601,1.45c-0.399,0.399-0.883,0.6-1.45,0.6
			c-0.566,0-1.05-0.2-1.449-0.6c-0.434-0.4-0.65-0.884-0.65-1.45V500.4c0-1.534,0.616-2.834,1.85-3.9
			c0.034-0.033,0.084-0.066,0.15-0.1c1.066-0.9,2.35-1.351,3.85-1.351c1.233,0,2.351,0.334,3.351,1c1.033,0.7,1.767,1.617,2.2,2.75
			l8.399,21.7c0.233,0.533,0.483,0.9,0.75,1.1c0.3,0.2,0.684,0.301,1.15,0.301c0.533,0,0.983-0.15,1.35-0.45
			c0.2-0.167,0.3-0.483,0.3-0.95v-23.4C680.35,496.566,680.566,496.083,681,495.65z M651.6,497.1v26.851
			c0,0.566-0.199,1.05-0.6,1.45c-0.4,0.399-0.884,0.6-1.45,0.6s-1.05-0.2-1.45-0.6c-0.399-0.4-0.6-0.884-0.6-1.45V497.1
			c0-0.533,0.2-1.017,0.6-1.449c0.4-0.4,0.884-0.601,1.45-0.601s1.05,0.2,1.45,0.601C651.4,496.083,651.6,496.566,651.6,497.1z
			 M631.4,499.2c-1.801,0-3.334,0.633-4.601,1.899c-1.3,1.267-1.95,2.801-1.95,4.601v18.25c0,0.566-0.199,1.05-0.6,1.45
			c-0.4,0.399-0.884,0.6-1.45,0.6s-1.05-0.2-1.45-0.6c-0.399-0.4-0.6-0.884-0.6-1.45V505.7c0-1.8-0.634-3.334-1.9-4.601
			c-1.3-1.267-2.85-1.899-4.649-1.899s-3.351,0.633-4.65,1.899c-1.267,1.267-1.899,2.801-1.899,4.601v18.25
			c0,0.566-0.2,1.05-0.601,1.45c-0.399,0.399-0.883,0.6-1.45,0.6c-0.566,0-1.05-0.2-1.449-0.6c-0.4-0.4-0.601-0.884-0.601-1.45
			V505.7c0-2.9,1.033-5.4,3.101-7.5c2.066-2.101,4.583-3.15,7.55-3.15c2.934,0,5.45,1.05,7.55,3.15c0.4,0.399,0.75,0.816,1.05,1.25
			c0.334-0.434,0.7-0.851,1.101-1.25c2.066-2.101,4.566-3.15,7.5-3.15c2.966,0,5.483,1.05,7.55,3.15c2.1,2.1,3.149,4.6,3.149,7.5
			v18.25c0,0.566-0.216,1.05-0.649,1.45c-0.4,0.399-0.867,0.6-1.4,0.6c-0.6,0-1.083-0.2-1.45-0.6c-0.433-0.4-0.649-0.884-0.649-1.45
			V505.7c0-1.8-0.634-3.334-1.9-4.601S633.233,499.2,631.4,499.2z M599.2,509v14.95c0,0.566-0.2,1.05-0.601,1.45
			c-0.399,0.399-0.899,0.6-1.5,0.6c-0.566,0-1.05-0.2-1.449-0.6c-0.4-0.4-0.601-0.884-0.601-1.45v-7.75h-19.6v7.75
			c0,0.566-0.2,1.05-0.601,1.45c-0.399,0.399-0.883,0.6-1.449,0.6c-0.567,0-1.051-0.2-1.45-0.6c-0.4-0.4-0.601-0.884-0.601-1.45V509
			c0-3.833,1.367-7.116,4.101-9.85c2.7-2.733,5.967-4.101,9.8-4.101s7.116,1.367,9.85,4.101S599.2,505.167,599.2,509z M592.2,502.05
			c-1.934-1.899-4.25-2.85-6.95-2.85c-2.667,0-4.967,0.95-6.9,2.85c-1.933,1.934-2.899,4.25-2.899,6.95v3.1h19.6V509
			C595.05,506.3,594.1,503.983,592.2,502.05z"/>
	</g>
	<g>
		<g>
			<path fill-rule="evenodd" clip-rule="evenodd" fill="#FFFFFF" d="M659.6,494.4c1.067-0.9,2.351-1.351,3.851-1.351
				c1.233,0,2.35,0.334,3.35,1c1.033,0.7,1.767,1.617,2.2,2.75l8.4,21.7c0.233,0.533,0.483,0.9,0.75,1.1
				c0.3,0.2,0.683,0.301,1.149,0.301c0.533,0,0.983-0.15,1.351-0.45c0.199-0.167,0.3-0.483,0.3-0.95v-23.4
				c0-0.533,0.217-1.017,0.649-1.449c0.367-0.4,0.851-0.601,1.45-0.601c0.566,0,1.05,0.2,1.45,0.601c0.4,0.433,0.6,0.916,0.6,1.449
				v23.851c0,1.5-0.633,2.75-1.899,3.75c-1.101,0.866-2.4,1.3-3.9,1.3c-1.366,0-2.55-0.35-3.55-1.05h0.05
				c-0.934-0.7-1.666-1.667-2.2-2.9c-0.866-2.166-2.25-5.783-4.149-10.85c-1.767-4.7-3.184-8.316-4.25-10.851
				c-0.134-0.333-0.367-0.616-0.7-0.85c-0.3-0.2-0.65-0.3-1.05-0.3c-0.5,0-0.917,0.116-1.25,0.35l-0.05,0.05
				c-0.267,0.233-0.4,0.567-0.4,1v23.351c0,0.566-0.2,1.05-0.6,1.45c-0.4,0.399-0.884,0.6-1.45,0.6s-1.05-0.2-1.45-0.6
				c-0.434-0.4-0.65-0.884-0.65-1.45V498.4c0-1.534,0.617-2.834,1.851-3.9C659.483,494.467,659.533,494.434,659.6,494.4z
				 M651.6,493.65c0.4,0.433,0.601,0.916,0.601,1.449v26.851c0,0.566-0.2,1.05-0.601,1.45c-0.399,0.399-0.883,0.6-1.449,0.6
				c-0.567,0-1.051-0.2-1.45-0.6c-0.4-0.4-0.601-0.884-0.601-1.45V495.1c0-0.533,0.2-1.017,0.601-1.449
				c0.399-0.4,0.883-0.601,1.45-0.601C650.717,493.05,651.2,493.25,651.6,493.65z M717.15,500.7c0.3,0.5,0.366,1.033,0.199,1.6
				c-0.133,0.533-0.449,0.95-0.949,1.25s-1.017,0.367-1.551,0.2c-0.533-0.134-0.949-0.45-1.25-0.95
				c-1.033-1.733-2.416-3.1-4.149-4.1s-3.617-1.5-5.65-1.5c-3.133,0-5.8,1.116-8,3.35c-2.233,2.2-3.35,4.867-3.35,8
				c0,3.101,1.116,5.767,3.35,8c2.2,2.233,4.867,3.351,8,3.351c3.134,0,5.8-1.117,8-3.351c1.7-1.666,2.75-3.649,3.15-5.95H703.8
				c-0.566,0-1.05-0.199-1.45-0.6c-0.399-0.4-0.6-0.884-0.6-1.45s0.2-1.05,0.6-1.45c0.4-0.433,0.884-0.649,1.45-0.649h13.4
				c0.566,0,1.05,0.217,1.45,0.649c0.433,0.4,0.649,0.884,0.649,1.45c0,4.267-1.517,7.9-4.55,10.9
				c-3.033,3.033-6.684,4.55-10.95,4.55s-7.899-1.517-10.899-4.55c-3.034-3-4.551-6.634-4.551-10.9s1.517-7.916,4.551-10.95
				c3-3.033,6.633-4.55,10.899-4.55c2.733,0,5.3,0.684,7.7,2.05C713.866,496.467,715.75,498.333,717.15,500.7z M632,497.2
				c-1.8,0-3.333,0.633-4.6,1.899c-1.301,1.267-1.95,2.801-1.95,4.601v18.25c0,0.566-0.2,1.05-0.601,1.45
				c-0.399,0.399-0.883,0.6-1.449,0.6c-0.567,0-1.051-0.2-1.45-0.6c-0.4-0.4-0.601-0.884-0.601-1.45V503.7
				c0-1.8-0.633-3.334-1.899-4.601c-1.3-1.267-2.851-1.899-4.65-1.899s-3.35,0.633-4.649,1.899c-1.267,1.267-1.9,2.801-1.9,4.601
				v18.25c0,0.566-0.2,1.05-0.6,1.45c-0.4,0.399-0.884,0.6-1.45,0.6s-1.05-0.2-1.45-0.6c-0.4-0.4-0.6-0.884-0.6-1.45V503.7
				c0-2.9,1.033-5.4,3.1-7.5c2.066-2.101,4.583-3.15,7.55-3.15c2.934,0,5.45,1.05,7.55,3.15c0.4,0.399,0.75,0.816,1.051,1.25
				c0.333-0.434,0.699-0.851,1.1-1.25c2.066-2.101,4.566-3.15,7.5-3.15c2.967,0,5.483,1.05,7.55,3.15c2.101,2.1,3.15,4.6,3.15,7.5
				v18.25c0,0.566-0.217,1.05-0.65,1.45c-0.399,0.399-0.866,0.6-1.399,0.6c-0.601,0-1.084-0.2-1.45-0.6
				c-0.434-0.4-0.65-0.884-0.65-1.45V503.7c0-1.8-0.633-3.334-1.899-4.601S633.833,497.2,632,497.2z M592.8,500.05
				c-1.934-1.899-4.25-2.85-6.95-2.85c-2.666,0-4.966,0.95-6.899,2.85c-1.934,1.934-2.9,4.25-2.9,6.95v3.1h19.601V507
				C595.65,504.3,594.7,501.983,592.8,500.05z M599.8,507v14.95c0,0.566-0.2,1.05-0.6,1.45c-0.4,0.399-0.9,0.6-1.5,0.6
				c-0.566,0-1.05-0.2-1.45-0.6c-0.4-0.4-0.6-0.884-0.6-1.45v-7.75H576.05v7.75c0,0.566-0.2,1.05-0.6,1.45
				c-0.4,0.399-0.884,0.6-1.45,0.6s-1.05-0.2-1.45-0.6c-0.399-0.4-0.6-0.884-0.6-1.45V507c0-3.833,1.366-7.116,4.1-9.85
				c2.7-2.733,5.967-4.101,9.8-4.101c3.834,0,7.117,1.367,9.851,4.101S599.8,503.167,599.8,507z"/>
			<path fill-rule="evenodd" clip-rule="evenodd" fill="#66FFFF" d="M566.8,502.3c-0.166,0.533-0.483,0.95-0.95,1.25
				c-0.5,0.3-1.033,0.367-1.6,0.2c-0.533-0.134-0.95-0.45-1.25-0.95c-1-1.733-2.384-3.1-4.15-4.1c-1.733-1-3.6-1.5-5.6-1.5
				c-3.134,0-5.816,1.116-8.05,3.35c-2.2,2.2-3.3,4.867-3.3,8c0,3.101,1.1,5.767,3.3,8c2.233,2.233,4.916,3.351,8.05,3.351
				c3.1,0,5.634-1.184,7.6-3.551c1.067-1.267,1.95-2.083,2.65-2.449c0.833-0.467,1.616-0.434,2.35,0.1
				c0.667,0.533,0.867,1.283,0.601,2.25c-0.334,0.934-1.101,2-2.3,3.2c-3,3.033-6.634,4.55-10.9,4.55s-7.917-1.517-10.95-4.55
				c-3.033-3-4.55-6.634-4.55-10.9s1.517-7.916,4.55-10.95c3.033-3.033,6.684-4.55,10.95-4.55c2.7,0,5.25,0.684,7.65,2.05
				c2.366,1.367,4.25,3.233,5.649,5.601C566.85,501.2,566.934,501.733,566.8,502.3z M566.4,507.35c0.399,0.4,0.6,0.867,0.6,1.4
				c0,0.6-0.2,1.1-0.6,1.5c-0.4,0.4-0.884,0.6-1.45,0.6h-11.5c-0.566,0-1.05-0.216-1.45-0.649c-0.4-0.4-0.6-0.867-0.6-1.4
				c0-0.6,0.199-1.1,0.6-1.5c0.4-0.399,0.884-0.6,1.45-0.6h11.5C565.517,506.7,566,506.917,566.4,507.35z"/>
		</g>
	</g>
	<g>
		<path fill-rule="evenodd" clip-rule="evenodd" fill="#BE2239" d="M387.2,412.2c-1.973,0.136-4.023,0.902-6.15,2.3
			c-2.367,1.434-4.117,3.184-5.25,5.25l-30.5,52.85c-0.767,1.367-1.15,2.617-1.15,3.75c0,2.361,1.267,3.628,3.8,3.801
			c0.029-0.002,0.063-0.002,0.1,0c1.427-0.079,2.918-0.504,4.475-1.275c0.146-0.068,0.296-0.144,0.45-0.225
			c0.079-0.052,0.163-0.102,0.25-0.15c0.086-0.053,0.169-0.103,0.25-0.15c0.067-0.044,0.134-0.085,0.2-0.125
			c0.062-0.032,0.12-0.065,0.175-0.1c0.051-0.036,0.102-0.069,0.15-0.1c0.067-0.041,0.134-0.083,0.2-0.125
			c2.333-1.467,4.083-3.267,5.25-5.4l30.5-52.75c0.7-1.3,1.05-2.55,1.05-3.75c0-2.394-1.233-3.661-3.7-3.8
			C387.263,412.202,387.229,412.202,387.2,412.2z M571.2,404.75c2.934,0,4.399,1.267,4.399,3.8c0,1.134-0.383,2.351-1.149,3.65
			l-8.75,15.149c-1.134,2.134-2.884,3.9-5.25,5.301c-2.334,1.5-4.566,2.25-6.7,2.25h-38.6c-2.834,0-4.25-1.267-4.25-3.801
			c0-1.133,0.35-2.383,1.05-3.75l4.399-7.6c0.767-1.3,1.15-2.55,1.15-3.75c0-2.394-1.267-3.66-3.8-3.8
			c-0.035,0.002-0.069,0.002-0.101,0c-1.905,0.135-3.923,0.902-6.05,2.3c-2.366,1.434-4.149,3.184-5.35,5.25l-30.45,52.75
			c-0.867,1.434-1.3,2.717-1.3,3.85c0,2.365,1.3,3.632,3.9,3.801c0.029-0.002,0.063-0.002,0.1,0c1.959-0.104,4.009-0.854,6.15-2.25
			c2.3-1.467,4.083-3.267,5.35-5.4l13-22.55c1.2-2.134,2.967-3.917,5.3-5.351c2.333-1.466,4.55-2.199,6.65-2.199H549.6
			c2.767,0,4.15,1.25,4.15,3.75c0,1.166-0.35,2.433-1.05,3.8l-51.05,88.7c-1.601,2.666-3.3,4-5.101,4
			c-0.138,0-0.271-0.009-0.4-0.025c-0.083,0.009-0.167,0.017-0.25,0.025h-0.25c-0.933,0-1.7-0.517-2.3-1.551l-20.9-35.35
			c-0.667-1.167-1-2.65-1-4.45c0-2.6,0.65-4.934,1.95-7c0.6-1.033,0.9-2.05,0.9-3.05c0-2.343-1.508-3.542-4.525-3.6
			c-0.074,0-0.149,0-0.225,0H416.8c-1.729,0-2.929-0.467-3.6-1.4c-0.434-0.593-0.65-1.376-0.65-2.35c0-1.167,0.383-2.417,1.15-3.75
			l39.25-67.95c1.133-2.066,2.85-3.8,5.15-5.2c2.3-1.5,4.517-2.25,6.65-2.25H571.2z M634.6,408.55c0,1.134-0.383,2.351-1.149,3.65
			l-39.3,67.95c-1.134,2.1-2.867,3.866-5.2,5.3c-2.367,1.467-4.55,2.2-6.55,2.2h-38.65c-2.866,0-4.3-1.25-4.3-3.75
			c0-1.167,0.35-2.417,1.05-3.75l39.25-67.95c1.167-2.066,2.95-3.8,5.35-5.2c2.334-1.5,4.483-2.25,6.45-2.25h38.601
			C633.116,404.75,634.6,406.017,634.6,408.55z M286.15,483.9c0-1.167,0.35-2.417,1.05-3.75l39.25-67.95
			c1.2-2.066,2.983-3.8,5.35-5.2c2.333-1.5,4.483-2.25,6.45-2.25H444.7c3,0,4.5,1.267,4.5,3.8c0,1.134-0.383,2.351-1.15,3.65
			l-39.3,67.95c-1.133,2.1-2.867,3.866-5.2,5.3c-0.466,0.3-0.933,0.566-1.4,0.8c-1.833,0.934-3.55,1.4-5.15,1.4h-0.525
			c-0.024-0.001-0.049-0.001-0.075,0c-0.023-0.001-0.048-0.001-0.075,0c-0.022-0.001-0.047-0.001-0.075,0h-0.075
			c-0.021,0-0.046,0-0.075,0H290.45C287.583,487.65,286.15,486.4,286.15,483.9z M326.4,386.6c0.7,1.1,1.05,2.55,1.05,4.35
			c0,2.6-0.65,5-1.95,7.2l-56.8,98.65h74.65c1.039-0.068,1.947-0.068,2.725,0H415.6v0.05h39.05c0.95-0.083,1.8-0.116,2.55-0.1
			c5.124-0.117,6.473,1.732,4.05,5.55c-1.489,2.345-2.914,4.262-4.275,5.75l-3.875,6.601c-0.3,0.466-0.6,0.933-0.9,1.399
			c-2.3,3.367-4.434,5.667-6.4,6.9c-2.3,1.467-5.833,2.184-10.6,2.149H205.95c-2.9,0-4.35-1.25-4.35-3.75
			c0-1.166,0.4-2.416,1.2-3.75l94.6-163.8c1.533-2.733,3.2-4.1,5-4.1c0.149,0,0.291,0.008,0.425,0.025
			c0.159-0.017,0.317-0.025,0.475-0.025c1,0,1.733,0.466,2.2,1.4L326.4,386.6z M763.3,408.55c0,1.134-0.416,2.351-1.25,3.65
			l-39.25,67.95c-1.1,2.1-2.816,3.866-5.149,5.3c-2.367,1.467-4.551,2.2-6.551,2.2H672.45c-2.934,0-4.4-1.25-4.4-3.75
			c0-1.167,0.351-2.417,1.05-3.75l34.95-60.4c0.7-1.3,1.05-2.55,1.05-3.75c0-2.394-1.233-3.661-3.699-3.8
			c-0.038,0.002-0.071,0.002-0.101,0c-1.973,0.136-4.022,0.902-6.149,2.3c-2.367,1.434-4.15,3.184-5.351,5.25l-34.75,60.4
			c-1.2,2.1-2.983,3.866-5.35,5.3c-2.334,1.467-4.5,2.2-6.5,2.2h-38.65c-2.899,0-4.35-1.25-4.35-3.75c0-1.167,0.366-2.417,1.1-3.75
			l39.25-67.95c1.167-2.066,2.917-3.8,5.25-5.2c2.4-1.5,4.584-2.25,6.55-2.25H758.8C761.8,404.75,763.3,406.017,763.3,408.55z"/>
	</g>
	<g>
		<path fill-rule="evenodd" clip-rule="evenodd" fill="#FFFFFF" d="M392.9,408.7c-2.133,0-4.367,0.767-6.7,2.3
			c-2.367,1.434-4.117,3.184-5.25,5.25l-30.5,52.85c-0.767,1.367-1.15,2.617-1.15,3.75c0,2.534,1.45,3.801,4.35,3.801
			c2.067,0,4.267-0.75,6.6-2.25c2.333-1.467,4.083-3.267,5.25-5.4l30.5-52.75c0.7-1.3,1.05-2.55,1.05-3.75
			C397.05,409.967,395.667,408.7,392.9,408.7z M580.75,405.05c0,1.134-0.384,2.351-1.15,3.65l-8.75,15.149
			c-1.133,2.134-2.883,3.9-5.25,5.301c-2.333,1.5-4.566,2.25-6.699,2.25h-37.7c-2.834,0-4.25-1.267-4.25-3.801
			c0-1.133,0.35-2.383,1.05-3.75l4.4-7.6c0.767-1.3,1.149-2.55,1.149-3.75c0-2.533-1.416-3.8-4.25-3.8c-2.066,0-4.267,0.767-6.6,2.3
			c-2.367,1.434-4.15,3.184-5.351,5.25L476.9,469c-0.867,1.434-1.3,2.717-1.3,3.85c0,2.534,1.483,3.801,4.45,3.801
			c2.1,0,4.3-0.75,6.6-2.25c2.3-1.467,4.083-3.267,5.35-5.4l13-22.55c1.2-2.134,2.967-3.917,5.3-5.351
			c2.334-1.466,4.55-2.199,6.65-2.199h37.8c2.767,0,4.15,1.25,4.15,3.75c0,1.166-0.351,2.433-1.051,3.8l-51.05,88.7
			c-1.6,2.666-3.3,4-5.1,4c-0.934,0-1.7-0.517-2.3-1.551l-20.9-35.35c-0.667-1.167-1-2.65-1-4.45c0-2.6,0.65-4.934,1.95-7
			c0.6-1.033,0.9-2.05,0.9-3.05c0-2.4-1.583-3.6-4.75-3.6h-52.75c-1.731,0-2.931-0.467-3.6-1.4c-0.433-0.594-0.65-1.378-0.65-2.35
			c0-1.167,0.383-2.417,1.15-3.75L459,408.7c1.133-2.066,2.85-3.8,5.15-5.2c2.3-1.5,4.517-2.25,6.65-2.25h105.55
			C579.283,401.25,580.75,402.517,580.75,405.05z M639.75,405.05c0,1.134-0.384,2.351-1.15,3.65l-39.3,67.95
			c-1.133,2.1-2.866,3.866-5.2,5.3c-2.366,1.467-4.55,2.2-6.55,2.2H549.8c-2.866,0-4.3-1.25-4.3-3.75c0-1.167,0.35-2.417,1.05-3.75
			l39.25-67.95c1.167-2.066,2.95-3.8,5.351-5.2c2.333-1.5,4.483-2.25,6.449-2.25h37.7C638.267,401.25,639.75,402.517,639.75,405.05z
			 M292.2,480.4c0-1.167,0.35-2.417,1.05-3.75l39.25-67.95c1.2-2.066,2.983-3.8,5.35-5.2c2.333-1.5,4.483-2.25,6.45-2.25h105.55
			c3,0,4.5,1.267,4.5,3.8c0,1.134-0.383,2.351-1.15,3.65l-39.3,67.95c-1.133,2.1-2.867,3.866-5.2,5.3
			c-0.479,0.297-0.954,0.563-1.425,0.8c-1.821,0.934-3.529,1.4-5.125,1.4H296.5C293.633,484.15,292.2,482.9,292.2,480.4z
			 M331.55,383.1c0.7,1.1,1.05,2.55,1.05,4.35c0,2.6-0.65,5-1.95,7.2l-56.8,98.65h146.9v0.05h39.95c6.466-0.566,8.367,1.25,5.7,5.45
			c-0.308,0.485-0.958,1.585-1.95,3.3l-5.3,9.051c-0.298,0.479-0.598,0.946-0.9,1.399c-2.3,3.367-4.433,5.667-6.4,6.9
			c-2.3,1.467-5.833,2.184-10.6,2.149H212c-2.9,0-4.35-1.25-4.35-3.75c0-1.166,0.4-2.416,1.2-3.75l94.6-163.8
			c1.533-2.733,3.2-4.1,5-4.1c1,0,1.733,0.466,2.2,1.4L331.55,383.1z M768.45,405.05c0,1.134-0.417,2.351-1.25,3.65l-39.25,67.95
			c-1.101,2.1-2.816,3.866-5.15,5.3c-2.366,1.467-4.55,2.2-6.55,2.2H678.5c-2.934,0-4.4-1.25-4.4-3.75
			c0-1.167,0.351-2.417,1.051-3.75l34.949-60.4c0.7-1.3,1.051-2.55,1.051-3.75c0-2.533-1.384-3.8-4.15-3.8
			c-2.134,0-4.366,0.767-6.7,2.3c-2.366,1.434-4.149,3.184-5.35,5.25l-34.75,60.4c-1.2,2.1-2.983,3.866-5.351,5.3
			c-2.333,1.467-4.5,2.2-6.5,2.2H610.6c-2.899,0-4.35-1.25-4.35-3.75c0-1.167,0.366-2.417,1.1-3.75l39.25-67.95
			c1.167-2.066,2.917-3.8,5.25-5.2c2.4-1.5,4.584-2.25,6.551-2.25h105.55C766.95,401.25,768.45,402.517,768.45,405.05z"/>
	</g>
</g>
</svg>
